<svg version="1.1" id="Layer_1" xmlns="http://www.w3.org/2000/svg" xmlns:xlink="http://www.w3.org/1999/xlink" x="0px" y="0px"
	 width="100%" viewBox="0 0 143 97" enable-background="new 0 0 143 97" xml:space="preserve">
<path fill="#000000" opacity="1.000000" stroke="none" 
	d="
M105.000000,98.000000 
	C70.000000,98.000000 35.500000,98.000000 1.000000,98.000000 
	C1.000000,65.666664 1.000000,33.333332 1.000000,1.000000 
	C48.666668,1.000000 96.333336,1.000000 144.000000,1.000000 
	C144.000000,33.333332 144.000000,65.666664 144.000000,98.000000 
	C131.166672,98.000000 118.333336,98.000000 105.000000,98.000000 
M20.862879,71.445915 
	C20.862879,71.445915 20.868107,71.430672 20.023104,71.322845 
	C18.034399,72.314278 15.727386,73.187843 17.956356,76.385117 
	C17.959904,76.595169 17.963451,76.805222 17.677574,77.709641 
	C16.166744,80.491875 17.448221,82.345062 20.130209,81.828842 
	C23.841013,81.114594 27.349127,79.347298 31.395594,77.435059 
	C36.176373,76.407730 39.489487,79.143784 43.455616,82.182281 
	C44.629833,81.822083 45.804047,81.461891 47.570648,81.513481 
	C48.590939,82.364693 49.546997,83.848175 50.642456,83.959473 
	C55.837200,84.487190 61.220100,85.535110 66.249535,84.691010 
	C71.974297,83.730217 77.395592,80.961372 83.484016,78.744453 
	C83.980240,78.437805 84.476463,78.131149 85.595200,77.706085 
	C86.734856,76.827271 87.874512,75.948456 89.626579,74.759392 
	C91.731781,71.451973 94.147568,68.298660 95.880394,64.806465 
	C100.063545,56.376114 99.502312,47.624344 97.151871,38.287800 
	C97.446968,37.564102 97.742065,36.840405 98.790039,36.096863 
	C99.877609,34.758644 100.965179,33.420422 102.679375,32.002434 
	C103.098412,32.037903 103.517441,32.073368 104.122803,32.745594 
	C104.987885,34.321754 104.987885,34.321754 109.631096,31.522263 
	C109.933647,27.396801 107.619530,24.643303 103.581024,24.862204 
	C103.581024,24.862204 103.243820,24.962502 103.018417,24.313299 
	C101.660507,21.183336 99.521057,21.319334 96.768059,22.500946 
	C94.289459,23.564785 91.599815,24.136894 88.729774,24.301834 
	C85.812767,22.565828 82.895760,20.829824 79.363205,18.760052 
	C75.322350,14.886744 70.542931,13.302155 64.192978,13.949349 
	C58.167786,12.170681 52.537212,13.707728 46.499722,15.999217 
	C46.499722,15.999217 46.001484,16.006933 45.343311,16.037516 
	C44.547535,16.388105 43.751759,16.738695 42.492722,17.229034 
	C42.219135,17.421705 42.022663,17.674370 41.328720,18.005606 
	C40.876118,18.302055 40.423512,18.598507 39.343582,19.043880 
	C38.880287,19.671600 38.416996,20.299322 37.244015,21.035315 
	C35.453938,22.984501 33.663864,24.933687 31.188925,27.024872 
	C29.487944,29.365988 27.285255,31.492155 26.173996,34.085926 
	C21.684530,44.564716 22.367456,55.207779 25.347977,66.135811 
	C24.422062,67.334122 20.980785,66.887077 21.759115,69.836456 
	C21.475899,70.379837 21.192680,70.923210 20.862879,71.445915 
M111.304367,65.104538 
	C110.910789,66.077850 110.517212,67.051170 110.009018,68.670753 
	C109.621284,69.309288 109.233559,69.947823 108.731125,70.775261 
	C108.062111,69.221764 107.565285,68.068100 107.040161,66.108253 
	C106.153046,64.447655 105.265930,62.787056 104.378815,61.126457 
	C103.584557,62.867954 102.530670,64.544693 102.075203,66.370697 
	C101.685532,67.932861 102.112663,69.679329 101.947479,71.321030 
	C101.615028,74.625061 103.275330,75.411522 106.896767,75.028069 
	C112.228241,74.965347 117.559723,74.902626 123.457031,74.755623 
	C124.949699,74.536896 126.442368,74.318176 128.013763,74.670364 
	C128.351151,75.085236 128.688538,75.500107 129.696457,75.954979 
	C130.478943,75.652855 131.261429,75.350731 132.754364,74.932076 
	C137.360275,73.463760 135.654938,69.944885 134.836441,67.225761 
	C134.441635,65.914131 132.316010,65.123505 130.285507,64.329681 
	C126.936012,63.645451 123.586510,62.961220 120.456032,62.321732 
	C117.712143,63.188992 114.854012,64.092354 112.000000,64.999908 
	C112.000000,64.999908 111.997200,64.995422 111.304367,65.104538 
z"/>
<path fill="#F4F6F6" opacity="1.000000" stroke="none" 
	d="
M102.052757,32.082199 
	C100.965179,33.420422 99.877609,34.758644 98.253220,35.790688 
	C93.907578,35.930855 90.972656,37.314800 90.616028,41.987839 
	C89.678459,42.754677 89.056458,43.842419 88.439674,43.839470 
	C85.484894,43.825352 87.223724,45.808376 86.600716,47.008011 
	C81.209892,50.206264 76.191978,53.321358 70.609383,56.786999 
	C74.195198,59.286865 77.520149,61.604870 80.823097,63.907536 
	C80.088028,64.799759 79.610428,65.917274 78.801140,66.266792 
	C75.640984,67.631653 72.407082,68.873100 69.090538,69.738785 
	C68.824921,69.808121 67.720329,66.663261 67.224319,64.987335 
	C67.443031,64.962593 67.862755,64.829788 68.147644,64.904152 
	C68.628548,64.988991 68.824562,64.999474 69.368118,65.008011 
	C70.331360,63.790215 70.947052,62.574364 71.562752,61.358513 
	C70.368546,61.575779 69.174339,61.793049 67.625015,61.916546 
	C67.025284,61.811569 66.780670,61.800369 66.372467,61.803528 
	C66.208870,61.817890 65.948349,62.017902 65.708939,61.989323 
	C65.469536,61.960743 64.990166,61.908573 65.023300,61.594231 
	C64.623283,60.928875 64.190140,60.577862 63.756989,60.226849 
	C63.490589,60.745514 63.224190,61.264175 62.634357,61.955650 
	C56.228321,67.479111 48.444717,68.320679 40.662460,70.078247 
	C36.523540,72.330048 32.757568,74.658028 28.557859,77.085831 
	C27.111986,76.881866 26.099852,76.578072 25.210695,76.072235 
	C25.170649,75.079735 25.007624,74.289261 24.844599,73.498795 
	C24.058750,73.966698 23.272902,74.434601 22.412281,74.458954 
	C21.741550,74.001144 21.145594,73.986893 20.782347,73.766365 
	C21.624664,73.014732 22.234272,72.469368 23.097420,71.751617 
	C23.517973,71.075569 23.684984,70.571899 23.851994,70.068230 
	C23.524239,70.020821 23.196486,69.973404 22.868731,69.925995 
	C20.980785,66.887077 24.422062,67.334122 25.993593,65.942917 
	C29.820217,62.891632 33.001225,60.033245 36.539276,57.141289 
	C38.584740,56.633469 40.297718,56.231819 41.956757,55.670696 
	C46.128445,54.259747 50.275780,52.776775 54.432877,51.322681 
	C54.373215,50.723766 54.313549,50.124847 54.253883,49.525932 
	C53.208168,48.988373 52.162453,48.450813 51.075699,47.934982 
	C51.034660,47.956715 51.087498,47.880329 51.106400,47.627819 
	C51.052269,47.223106 50.979244,47.070908 51.049255,46.580799 
	C52.001286,46.126968 52.806881,45.970493 53.619881,45.902359 
	C56.658672,45.647686 60.266064,46.370232 62.611530,44.969856 
	C66.419411,42.696339 70.116989,39.507328 72.522598,35.829308 
	C74.757095,32.412895 77.379761,30.767120 81.402916,29.966410 
	C85.192345,29.290871 88.562805,28.561783 92.279495,27.881950 
	C94.168900,27.917990 95.712067,27.904778 97.209946,28.233965 
	C97.819054,29.063828 98.473457,29.551287 99.217728,30.360088 
	C100.171455,30.884140 101.035339,31.086847 101.868820,31.501038 
	C101.838432,31.712523 102.052757,32.082203 102.052757,32.082199 
M88.991699,39.836739 
	C88.757950,39.584286 88.524193,39.331833 88.290436,39.079384 
	C88.304489,39.798958 88.318542,40.518536 88.332603,41.238110 
	C88.569649,40.966427 88.806686,40.694748 88.991699,39.836739 
z"/>
<path fill="#1C3037" opacity="1.000000" stroke="none" 
	d="
M86.973618,46.924847 
	C87.223724,45.808376 85.484894,43.825352 88.439674,43.839470 
	C89.056458,43.842419 89.678459,42.754677 90.961205,41.995899 
	C93.382774,40.833637 95.141205,39.845039 96.899635,38.856438 
	C99.502312,47.624344 100.063545,56.376114 95.880394,64.806465 
	C94.147568,68.298660 91.731781,71.451973 89.272156,74.589432 
	C86.420227,73.203552 85.689484,73.834267 84.972687,77.824501 
	C84.476463,78.131149 83.980240,78.437805 82.837158,78.866867 
	C80.782700,77.966377 79.375107,76.943481 78.134544,75.632736 
	C86.328636,67.438843 85.915031,56.957233 86.973618,46.924847 
z"/>
<path fill="#1D2F36" opacity="1.000000" stroke="none" 
	d="
M36.182236,57.174858 
	C33.001225,60.033245 29.820217,62.891632 26.296398,65.780136 
	C22.367456,55.207779 21.684530,44.564716 26.173996,34.085926 
	C27.285255,31.492155 29.487944,29.365988 31.569008,26.987938 
	C31.949091,26.951002 32.026215,27.017063 32.173676,27.310463 
	C34.726997,30.751846 37.362976,29.487181 39.955238,28.342525 
	C39.035267,30.315578 38.324768,32.057945 37.278625,33.567741 
	C32.849052,39.960499 34.727211,46.997311 34.801998,54.076508 
	C35.099079,55.239086 35.640659,56.206974 36.182236,57.174858 
z"/>
<path fill="#152A33" opacity="1.000000" stroke="none" 
	d="
M77.967514,75.920586 
	C79.375107,76.943481 80.782700,77.966377 82.569542,78.983833 
	C77.395592,80.961372 71.974297,83.730217 66.249535,84.691010 
	C61.220100,85.535110 55.837200,84.487190 50.642456,83.959473 
	C49.546997,83.848175 48.590939,82.364693 47.158089,81.027405 
	C46.434967,80.024994 46.124409,79.508652 46.091415,78.718643 
	C57.081245,79.849419 67.791580,81.229614 77.967514,75.920586 
z"/>
<path fill="#223841" opacity="1.000000" stroke="none" 
	d="
M127.935036,74.099449 
	C126.442368,74.318176 124.949699,74.536896 122.975357,74.554054 
	C119.275887,70.917770 114.164566,69.607491 111.995888,64.995720 
	C114.854012,64.092354 117.712143,63.188992 120.456032,62.321732 
	C123.586510,62.961220 126.936012,63.645451 130.637634,64.583359 
	C130.047470,68.374443 128.143784,72.011093 132.043915,75.048607 
	C131.261429,75.350731 130.478943,75.652855 129.353271,75.664169 
	C128.651718,74.948730 128.293381,74.524094 127.935036,74.099449 
M126.338852,71.907730 
	C126.558685,71.644775 126.778511,71.381828 126.998344,71.118874 
	C126.545898,70.957382 126.093452,70.795898 125.641006,70.634407 
	C125.710983,71.020264 125.780968,71.406128 126.338852,71.907730 
z"/>
<path fill="#32454D" opacity="1.000000" stroke="none" 
	d="
M111.997940,64.997818 
	C114.164566,69.607491 119.275887,70.917770 122.692444,74.596191 
	C117.559723,74.902626 112.228241,74.965347 106.688148,74.737221 
	C106.767883,74.308960 107.185997,74.242561 107.310341,74.015381 
	C107.452209,73.756195 107.448753,73.116562 107.309296,73.048141 
	C103.408783,71.134178 103.991241,69.081177 107.068466,66.914436 
	C107.565285,68.068100 108.062111,69.221764 108.731125,70.775261 
	C109.233559,69.947823 109.621284,69.309288 110.396057,68.276367 
	C111.187798,66.919800 111.592499,65.957611 111.997200,64.995422 
	C111.997200,64.995422 112.000000,64.999908 111.997940,64.997818 
z"/>
<path fill="#1F3136" opacity="1.000000" stroke="none" 
	d="
M91.933266,27.832695 
	C88.562805,28.561783 85.192345,29.290871 81.373459,29.632370 
	C79.304611,27.157789 77.684189,25.070799 76.416656,22.949190 
	C77.839279,21.640989 78.909019,20.367405 79.978752,19.093821 
	C82.895760,20.829824 85.812767,22.565828 88.913574,24.934975 
	C90.042664,26.322975 90.987968,27.077835 91.933266,27.832695 
z"/>
<path fill="#2E383A" opacity="1.000000" stroke="none" 
	d="
M28.991596,76.986008 
	C32.757568,74.658028 36.523540,72.330048 40.645752,70.446541 
	C42.001358,73.590851 43.000721,76.290680 43.723976,79.174622 
	C43.232353,80.200195 43.016834,81.041656 42.801319,81.883125 
	C39.489487,79.143784 36.176373,76.407730 30.883039,77.685867 
	C29.910856,77.619789 29.451225,77.302902 28.991596,76.986008 
z"/>
<path fill="#142A34" opacity="1.000000" stroke="none" 
	d="
M107.054314,66.511345 
	C103.991241,69.081177 103.408783,71.134178 107.309296,73.048141 
	C107.448753,73.116562 107.452209,73.756195 107.310341,74.015381 
	C107.185997,74.242561 106.767883,74.308960 106.303665,74.669655 
	C103.275330,75.411522 101.615028,74.625061 101.947479,71.321030 
	C102.112663,69.679329 101.685532,67.932861 102.075203,66.370697 
	C102.530670,64.544693 103.584557,62.867954 104.378815,61.126457 
	C105.265930,62.787056 106.153046,64.447655 107.054314,66.511345 
z"/>
<path fill="#233944" opacity="1.000000" stroke="none" 
	d="
M79.670975,18.926937 
	C78.909019,20.367405 77.839279,21.640989 76.378777,22.735666 
	C75.988007,22.556759 75.940193,22.125629 75.908081,21.765820 
	C72.244247,19.252987 68.612526,17.099960 64.984238,14.740507 
	C64.987679,14.534079 64.987877,14.121166 64.987877,14.121166 
	C70.542931,13.302155 75.322350,14.886744 79.670975,18.926937 
M77.519203,20.411606 
	C77.519203,20.411606 77.583672,20.519787 77.519203,20.411606 
z"/>
<path fill="#46545B" opacity="1.000000" stroke="none" 
	d="
M28.557858,77.085831 
	C29.451225,77.302902 29.910856,77.619789 30.657261,77.983810 
	C27.349127,79.347298 23.841013,81.114594 20.130209,81.828842 
	C17.448221,82.345062 16.166744,80.491875 18.005657,77.316895 
	C18.567829,76.837776 18.766216,76.700073 19.060070,76.110611 
	C19.212751,75.430115 19.234261,75.150040 19.267513,74.866188 
	C19.279259,74.862411 19.298090,74.866783 19.456697,75.106133 
	C19.773838,75.452766 19.932369,75.560051 20.122307,75.877655 
	C20.475420,76.379143 20.797125,76.670319 21.316753,77.334000 
	C22.034922,77.545456 22.555168,77.384407 23.099976,77.462151 
	C23.485495,77.702309 23.846455,77.703674 24.411991,77.673706 
	C24.616570,77.642365 24.909662,77.350235 24.909662,77.350235 
	C24.909662,77.350235 24.741301,76.972145 24.973438,76.869919 
	C25.166290,76.603233 25.127003,76.438759 25.087719,76.274277 
	C26.099852,76.578072 27.111986,76.881866 28.557858,77.085831 
z"/>
<path fill="#172E38" opacity="1.000000" stroke="none" 
	d="
M132.399139,74.990341 
	C128.143784,72.011093 130.047470,68.374443 130.981934,64.467003 
	C132.316010,65.123505 134.441635,65.914131 134.836441,67.225761 
	C135.654938,69.944885 137.360275,73.463760 132.399139,74.990341 
z"/>
<path fill="#49555D" opacity="1.000000" stroke="none" 
	d="
M92.279495,27.881948 
	C90.987968,27.077835 90.042664,26.322975 89.050308,25.247002 
	C91.599815,24.136894 94.289459,23.564785 96.768059,22.500946 
	C99.521057,21.319334 101.660507,21.183336 102.826645,24.713234 
	C102.087860,25.370047 101.540840,25.626925 100.871109,26.174965 
	C99.888901,26.970448 99.029411,27.474766 97.944504,27.923203 
	C97.719093,27.867319 97.255241,27.891563 97.255241,27.891563 
	C95.712067,27.904778 94.168900,27.917990 92.279495,27.881948 
M98.283333,25.010773 
	C98.628052,24.971897 98.978622,24.957504 99.313469,24.877363 
	C99.399895,24.856676 99.436905,24.629505 99.496613,24.497187 
	C99.116493,24.523619 98.736366,24.550051 98.283333,25.010773 
z"/>
<path fill="#20363E" opacity="1.000000" stroke="none" 
	d="
M42.955982,17.089285 
	C43.751759,16.738695 44.547535,16.388105 45.671593,16.271812 
	C46.000935,16.673635 46.002003,16.841162 46.144264,17.297722 
	C46.851593,18.698614 47.417721,19.810474 47.697998,21.076899 
	C45.963650,22.165573 44.515148,23.099682 42.799683,23.854372 
	C41.687904,23.116035 40.843094,22.557116 39.999142,21.999100 
	C40.000000,22.000000 40.001717,22.001711 40.001526,21.614166 
	C39.991192,20.449402 39.981049,19.672178 39.970905,18.894958 
	C40.423512,18.598507 40.876118,18.302055 41.840321,17.908035 
	C42.640610,17.643188 42.841961,17.402796 42.955982,17.089285 
z"/>
<path fill="#16212E" opacity="1.000000" stroke="none" 
	d="
M101.899216,31.289555 
	C101.035339,31.086847 100.171455,30.884140 99.180756,30.344694 
	C99.053940,30.007956 99.027672,30.083429 99.433640,30.080078 
	C101.186638,30.006279 102.533669,29.935829 104.243881,29.891857 
	C105.633835,29.560934 106.660599,29.203531 107.687370,28.846127 
	C107.522697,28.450909 107.358017,28.055691 107.193344,27.660473 
	C106.130058,28.049227 105.066780,28.437981 103.679871,28.856750 
	C102.926231,28.835022 102.496208,28.783279 102.085609,28.567394 
	C102.105026,28.403248 102.044418,28.078272 102.283981,27.780807 
	C103.024765,26.804836 103.525993,26.126331 104.006958,25.254343 
	C103.986694,25.060858 103.885101,24.685266 103.885101,24.685266 
	C107.619530,24.643303 109.933647,27.396801 109.000443,31.738707 
	C107.505699,31.684711 106.641602,31.414272 105.387772,31.117748 
	C103.965096,31.157625 102.932152,31.223591 101.899216,31.289555 
z"/>
<path fill="#293F46" opacity="1.000000" stroke="none" 
	d="
M64.590424,14.035257 
	C64.987877,14.121166 64.987679,14.534079 64.539452,14.759191 
	C58.393280,15.321691 52.695332,15.659080 46.998695,15.998234 
	C47.000000,15.999999 46.996056,15.996051 46.996056,15.996051 
	C52.537212,13.707728 58.167786,12.170681 64.590424,14.035257 
z"/>
<path fill="#CBC8C7" opacity="1.000000" stroke="none" 
	d="
M97.025757,38.572121 
	C95.141205,39.845039 93.382774,40.833637 91.279167,41.814178 
	C90.972656,37.314800 93.907578,35.930855 97.876785,35.800613 
	C97.742065,36.840405 97.446968,37.564102 97.025757,38.572121 
z"/>
<path fill="#1D2F36" opacity="1.000000" stroke="none" 
	d="
M31.911440,26.916939 
	C33.663864,24.933687 35.453938,22.984501 37.617104,21.247641 
	C37.996323,21.637562 38.002460,21.815159 37.877316,22.287594 
	C35.839424,24.060642 33.932819,25.538853 32.026215,27.017063 
	C32.026215,27.017063 31.949091,26.951002 31.911440,26.916939 
z"/>
<path fill="#010101" opacity="1.000000" stroke="none" 
	d="
M43.128468,82.032700 
	C43.016834,81.041656 43.232353,80.200195 44.027195,79.177475 
	C45.008961,78.994919 45.411407,78.993622 45.813850,78.992325 
	C46.124409,79.508652 46.434967,80.024994 46.861893,80.821510 
	C45.804047,81.461891 44.629833,81.822083 43.128468,82.032700 
z"/>
<path fill="#152A33" opacity="1.000000" stroke="none" 
	d="
M85.283943,77.765289 
	C85.689484,73.834267 86.420227,73.203552 88.965942,74.744553 
	C87.874512,75.948456 86.734856,76.827271 85.283943,77.765289 
z"/>
<path fill="#404851" opacity="1.000000" stroke="none" 
	d="
M105.777512,31.143833 
	C106.641602,31.414272 107.505699,31.684711 108.715340,31.979601 
	C104.987885,34.321754 104.987885,34.321754 104.293335,32.345219 
	C104.901756,31.677841 105.339630,31.410837 105.777512,31.143833 
z"/>
<path fill="#8A9C9A" opacity="1.000000" stroke="none" 
	d="
M19.255768,74.869965 
	C19.234261,75.150040 19.212751,75.430115 18.949389,75.914642 
	C18.707537,76.119102 18.335052,75.881348 18.335052,75.881348 
	C15.727386,73.187843 18.034399,72.314278 20.202051,71.761749 
	C20.269907,72.790543 20.158815,73.380417 20.020649,73.974266 
	C19.993574,73.978233 19.979103,74.030571 19.729229,74.019234 
	C19.114946,74.220131 19.040419,74.507492 19.255768,74.869965 
z"/>
<path fill="#293F46" opacity="1.000000" stroke="none" 
	d="
M38.008602,21.992756 
	C38.002460,21.815159 37.996323,21.637562 37.971947,21.193504 
	C38.416996,20.299322 38.880287,19.671600 39.657242,18.969418 
	C39.981049,19.672178 39.991192,20.449402 39.669258,21.612049 
	C38.894321,21.995903 38.451462,21.994329 38.008602,21.992756 
z"/>
<path fill="#2E3C38" opacity="1.000000" stroke="none" 
	d="
M20.047724,73.970299 
	C20.158815,73.380417 20.269907,72.790543 20.624554,71.815666 
	C20.868107,71.430672 20.862879,71.445915 21.151905,71.264641 
	C21.908581,71.363579 22.376228,71.643791 22.843878,71.924004 
	C22.234272,72.469368 21.624664,73.014732 20.657154,73.704651 
	C20.299252,73.849213 20.047724,73.970299 20.047724,73.970299 
z"/>
<path fill="#223841" opacity="1.000000" stroke="none" 
	d="
M111.650787,65.049980 
	C111.592499,65.957611 111.187798,66.919800 110.453362,67.953239 
	C110.517212,67.051170 110.910789,66.077850 111.650787,65.049980 
z"/>
<path fill="#B4B7BE" opacity="1.000000" stroke="none" 
	d="
M105.387772,31.117746 
	C105.339630,31.410837 104.901756,31.677841 104.200180,32.026840 
	C103.517441,32.073368 103.098412,32.037903 102.366066,32.042320 
	C102.052757,32.082203 101.838432,31.712523 101.868820,31.501038 
	C102.932152,31.223591 103.965096,31.157625 105.387772,31.117746 
z"/>
<path fill="#AEB7B0" opacity="1.000000" stroke="none" 
	d="
M23.097420,71.751617 
	C22.376228,71.643791 21.908581,71.363579 21.175198,71.274979 
	C21.192680,70.923210 21.475899,70.379837 22.313923,69.881226 
	C23.196486,69.973404 23.524239,70.020821 23.851994,70.068230 
	C23.684984,70.571899 23.517973,71.075569 23.097420,71.751617 
z"/>
<path fill="#172E38" opacity="1.000000" stroke="none" 
	d="
M127.974396,74.384903 
	C128.293381,74.524094 128.651718,74.948730 129.018005,75.644180 
	C128.688538,75.500107 128.351151,75.085236 127.974396,74.384903 
z"/>
<path fill="#252C36" opacity="1.000000" stroke="none" 
	d="
M103.733063,24.773735 
	C103.885101,24.685266 103.986694,25.060858 103.660599,25.439243 
	C102.554283,25.839684 101.774048,25.861740 100.993820,25.883799 
	C101.540840,25.626925 102.087860,25.370047 102.939346,25.037836 
	C103.243820,24.962502 103.581024,24.862204 103.733063,24.773735 
z"/>
<path fill="#546261" opacity="1.000000" stroke="none" 
	d="
M18.145704,76.133232 
	C18.335052,75.881348 18.707537,76.119102 18.818218,76.315063 
	C18.766216,76.700073 18.567829,76.837776 18.150368,76.969704 
	C17.963451,76.805222 17.959904,76.595169 18.145704,76.133232 
z"/>
<path fill="#293F46" opacity="1.000000" stroke="none" 
	d="
M42.724350,17.159161 
	C42.841961,17.402796 42.640610,17.643188 42.127613,17.898746 
	C42.022663,17.674370 42.219135,17.421705 42.724350,17.159161 
z"/>
<path fill="#293F46" opacity="1.000000" stroke="none" 
	d="
M46.003067,17.008690 
	C46.002003,16.841162 46.000935,16.673635 46.000679,16.256519 
	C46.001484,16.006933 46.499722,15.999217 46.747887,15.997634 
	C46.996056,15.996051 47.000000,15.999999 46.892704,16.219053 
	C46.582794,16.708046 46.322014,16.898241 46.003067,17.008690 
z"/>
<path fill="#010101" opacity="1.000000" stroke="none" 
	d="
M43.066650,24.033791 
	C44.515148,23.099682 45.963650,22.165573 48.074661,21.102066 
	C49.718014,20.855503 50.742416,20.880955 51.672268,20.596893 
	C56.083786,19.249216 60.150810,17.046391 65.148575,19.702791 
	C68.288086,21.371500 72.312683,21.375034 75.940193,22.125629 
	C75.940193,22.125629 75.988007,22.556759 76.025887,22.770283 
	C77.684189,25.070799 79.304611,27.157789 80.954491,29.578823 
	C77.379761,30.767120 74.757095,32.412895 72.522598,35.829308 
	C70.116989,39.507328 66.419411,42.696339 62.611530,44.969856 
	C60.266064,46.370232 56.658672,45.647686 53.619881,45.902359 
	C52.806881,45.970493 52.001286,46.126968 50.723385,46.724388 
	C48.440147,48.787777 46.864391,50.970222 44.754601,51.808342 
	C41.722492,53.012852 38.301495,53.238400 35.046494,53.881821 
	C34.727211,46.997311 32.849052,39.960499 37.278625,33.567741 
	C38.324768,32.057945 39.035267,30.315578 40.202690,28.194221 
	C40.684368,27.170691 40.863525,26.633133 41.309490,25.965466 
	C42.073086,25.234835 42.569866,24.634314 43.066650,24.033791 
z"/>
<path fill="#000000" opacity="1.000000" stroke="none" 
	d="
M46.091415,78.718651 
	C45.411407,78.993622 45.008961,78.994919 44.303299,78.993362 
	C43.000721,76.290680 42.001358,73.590851 41.018703,70.522728 
	C48.444717,68.320679 56.228321,67.479111 62.914276,62.035057 
	C64.008476,61.930622 64.499321,61.919598 64.990166,61.908569 
	C64.990166,61.908573 65.469536,61.960743 65.638992,62.337311 
	C66.206421,63.113461 66.604393,63.513042 66.892334,64.024956 
	C66.782310,64.137291 66.938759,64.410103 66.959290,64.560173 
	C66.979820,64.710243 67.005615,65.012070 67.005615,65.012070 
	C67.720329,66.663261 68.824921,69.808121 69.090538,69.738785 
	C72.407082,68.873100 75.640984,67.631653 78.801140,66.266792 
	C79.610428,65.917274 80.088028,64.799759 80.823097,63.907536 
	C77.520149,61.604870 74.195198,59.286865 70.609383,56.786999 
	C76.191978,53.321358 81.209892,50.206264 86.600716,47.008011 
	C85.915031,56.957233 86.328636,67.438843 78.134544,75.632736 
	C67.791580,81.229614 57.081245,79.849419 46.091415,78.718651 
z"/>
<path fill="#727C80" opacity="1.000000" stroke="none" 
	d="
M34.801998,54.076508 
	C38.301495,53.238400 41.722492,53.012852 44.754601,51.808342 
	C46.864391,50.970222 48.440147,48.787777 50.580353,47.062302 
	C50.979244,47.070908 51.052269,47.223106 50.892441,47.679974 
	C50.642464,48.190517 50.625336,48.396397 50.608212,48.602276 
	C50.777721,48.372604 50.947231,48.142929 51.116737,47.913254 
	C52.162453,48.450813 53.208168,48.988373 54.253883,49.525932 
	C54.313549,50.124847 54.373215,50.723766 54.432877,51.322681 
	C50.275780,52.776775 46.128445,54.259747 41.956757,55.670696 
	C40.297718,56.231819 38.584740,56.633469 36.539276,57.141289 
	C35.640659,56.206974 35.099079,55.239086 34.801998,54.076508 
z"/>
<path fill="#D3CCC7" opacity="1.000000" stroke="none" 
	d="
M67.980133,62.010323 
	C69.174339,61.793049 70.368546,61.575779 71.562752,61.358513 
	C70.947052,62.574364 70.331360,63.790215 69.358635,64.681396 
	C68.661118,63.574596 68.320625,62.792461 67.980133,62.010323 
z"/>
<path fill="#CCD3D0" opacity="1.000000" stroke="none" 
	d="
M23.075415,77.223366 
	C22.555168,77.384407 22.034922,77.545456 21.381172,77.224342 
	C21.247667,76.742180 21.082756,76.548531 21.390945,76.416786 
	C21.820162,75.877373 21.941187,75.469704 22.197071,75.098450 
	C22.331932,75.134865 22.487053,74.902504 22.487053,74.902504 
	C23.272902,74.434601 24.058750,73.966698 24.844599,73.498795 
	C25.007624,74.289261 25.170649,75.079735 25.210693,76.072243 
	C25.127003,76.438759 25.166290,76.603233 25.006535,76.876434 
	C24.807491,76.985176 24.870932,77.010941 24.408604,76.950386 
	C23.655991,77.001007 23.365704,77.112183 23.075415,77.223366 
z"/>
<path fill="#D3CCC7" opacity="1.000000" stroke="none" 
	d="
M65.023300,61.594231 
	C64.499321,61.919598 64.008476,61.930622 63.237709,61.862244 
	C63.224190,61.264175 63.490589,60.745514 63.756989,60.226849 
	C64.190140,60.577862 64.623283,60.928875 65.023300,61.594231 
z"/>
<path fill="#77716A" opacity="1.000000" stroke="none" 
	d="
M67.625015,61.916550 
	C68.320625,62.792461 68.661118,63.574596 69.011093,64.683350 
	C68.824562,64.999474 68.628548,64.988991 68.066437,64.717361 
	C67.457932,64.252113 67.204079,64.236740 66.938759,64.410103 
	C66.938759,64.410103 66.782310,64.137291 66.904999,63.652142 
	C66.863808,62.707718 66.699936,62.248444 66.536064,61.789165 
	C66.780670,61.800369 67.025284,61.811569 67.625015,61.916550 
z"/>
<path fill="#CBC8C7" opacity="1.000000" stroke="none" 
	d="
M89.017715,40.129902 
	C88.806686,40.694748 88.569649,40.966427 88.332603,41.238110 
	C88.318542,40.518536 88.304489,39.798958 88.290436,39.079384 
	C88.524193,39.331833 88.757950,39.584286 89.017715,40.129902 
z"/>
<path fill="#848388" opacity="1.000000" stroke="none" 
	d="
M97.209946,28.233965 
	C97.255241,27.891563 97.719093,27.867319 98.183708,27.908943 
	C98.648323,27.950565 99.093071,28.136374 99.056259,28.349613 
	C99.019440,28.562851 99.000229,28.996466 98.971909,29.269094 
	C98.971611,29.722292 98.999641,29.902861 99.027672,30.083429 
	C99.027672,30.083429 99.053940,30.007956 99.090904,30.023350 
	C98.473457,29.551287 97.819054,29.063828 97.209946,28.233965 
z"/>
<path fill="#727C80" opacity="1.000000" stroke="none" 
	d="
M20.020649,73.974266 
	C20.047724,73.970299 20.299252,73.849213 20.424444,73.910919 
	C21.145594,73.986893 21.741550,74.001144 22.412281,74.458954 
	C22.487053,74.902504 22.331932,75.134865 21.940342,75.055679 
	C21.381819,75.023750 21.214884,75.071022 20.792803,75.227859 
	C20.388739,75.447411 20.239820,75.557381 20.090902,75.667343 
	C19.932369,75.560051 19.773838,75.452766 19.662666,74.925201 
	C19.799719,74.346802 19.889410,74.188690 19.979103,74.030571 
	C19.979103,74.030571 19.993574,73.978233 20.020649,73.974266 
z"/>
<path fill="#D3CCC7" opacity="1.000000" stroke="none" 
	d="
M66.372467,61.803528 
	C66.699936,62.248444 66.863808,62.707718 67.015030,63.539806 
	C66.604393,63.513042 66.206421,63.113461 65.878403,62.365891 
	C65.948349,62.017902 66.208870,61.817890 66.372467,61.803528 
z"/>
<path fill="#010101" opacity="1.000000" stroke="none" 
	d="
M66.959290,64.560173 
	C67.204079,64.236740 67.457932,64.252113 67.781540,64.643005 
	C67.862755,64.829788 67.443031,64.962593 67.224319,64.987335 
	C67.005615,65.012070 66.979820,64.710243 66.959290,64.560173 
z"/>
<path fill="#20363E" opacity="1.000000" stroke="none" 
	d="
M41.042679,26.095575 
	C40.863525,26.633133 40.684368,27.170691 40.257759,27.856552 
	C37.362976,29.487181 34.726997,30.751846 32.173676,27.310463 
	C33.932819,25.538853 35.839424,24.060642 37.877316,22.287594 
	C38.451462,21.994329 38.894321,21.995903 39.669449,21.999594 
	C40.001717,22.001711 40.000000,22.000000 40.003468,22.356726 
	C40.352184,23.840826 40.697430,24.968201 41.042679,26.095575 
z"/>
<path fill="#172E38" opacity="1.000000" stroke="none" 
	d="
M126.094894,71.849854 
	C125.780968,71.406128 125.710983,71.020264 125.641006,70.634407 
	C126.093452,70.795898 126.545898,70.957382 126.998344,71.118874 
	C126.778511,71.381828 126.558685,71.644775 126.094894,71.849854 
z"/>
<path fill="#1A2D37" opacity="1.000000" stroke="none" 
	d="
M75.908081,21.765820 
	C72.312683,21.375034 68.288086,21.371500 65.148575,19.702791 
	C60.150810,17.046391 56.083786,19.249216 51.672268,20.596893 
	C50.742416,20.880955 49.718014,20.855503 48.360512,20.947502 
	C47.417721,19.810474 46.851593,18.698614 46.144264,17.297722 
	C46.322014,16.898241 46.582794,16.708046 46.891396,16.217287 
	C52.695332,15.659080 58.393280,15.321691 64.536011,14.965619 
	C68.612526,17.099960 72.244247,19.252987 75.908081,21.765820 
z"/>
<path fill="#1F3136" opacity="1.000000" stroke="none" 
	d="
M77.551437,20.465696 
	C77.583672,20.519787 77.519203,20.411606 77.551437,20.465696 
z"/>
<path fill="#546261" opacity="1.000000" stroke="none" 
	d="
M20.122307,75.877655 
	C20.239820,75.557381 20.388739,75.447411 20.790546,75.585281 
	C21.056541,76.071594 21.069649,76.310059 21.082756,76.548531 
	C21.082756,76.548531 21.247667,76.742180 21.183249,76.851837 
	C20.797125,76.670319 20.475420,76.379143 20.122307,75.877655 
z"/>
<path fill="#1C2429" opacity="1.000000" stroke="none" 
	d="
M23.099976,77.462151 
	C23.365704,77.112183 23.655991,77.001007 24.180973,77.065567 
	C24.346252,77.395882 24.276833,77.550468 24.207415,77.705048 
	C23.846455,77.703674 23.485495,77.702309 23.099976,77.462151 
z"/>
<path fill="#2E3C38" opacity="1.000000" stroke="none" 
	d="
M19.729229,74.019234 
	C19.889410,74.188690 19.799719,74.346802 19.504059,74.685852 
	C19.298090,74.866783 19.279259,74.862411 19.267513,74.866188 
	C19.040419,74.507492 19.114946,74.220131 19.729229,74.019234 
z"/>
<path fill="#F4F6F6" opacity="1.000000" stroke="none" 
	d="
M24.411991,77.673706 
	C24.276833,77.550468 24.346252,77.395882 24.643301,77.126122 
	C24.870932,77.010941 24.807491,76.985176 24.774395,76.978661 
	C24.741301,76.972145 24.909662,77.350235 24.909662,77.350235 
	C24.909662,77.350235 24.616570,77.642365 24.411991,77.673706 
z"/>
<path fill="#C4C5CC" opacity="1.000000" stroke="none" 
	d="
M99.093071,28.136374 
	C99.093071,28.136374 98.648323,27.950565 98.409119,27.964825 
	C99.029411,27.474766 99.888901,26.970448 100.871109,26.174963 
	C101.774048,25.861740 102.554283,25.839684 103.680862,25.632729 
	C103.525993,26.126331 103.024765,26.804836 101.916031,27.729698 
	C100.570038,28.029495 99.831551,28.082935 99.093071,28.136374 
z"/>
<path fill="#7A8089" opacity="1.000000" stroke="none" 
	d="
M98.319794,24.793627 
	C98.736366,24.550051 99.116493,24.523619 99.496613,24.497187 
	C99.436905,24.629505 99.399895,24.856676 99.313469,24.877363 
	C98.978622,24.957504 98.628052,24.971897 98.319794,24.793627 
z"/>
<path fill="#293F46" opacity="1.000000" stroke="none" 
	d="
M41.309486,25.965466 
	C40.697430,24.968201 40.352184,23.840826 40.002609,22.355824 
	C40.843094,22.557116 41.687904,23.116035 42.799683,23.854374 
	C42.569866,24.634314 42.073086,25.234835 41.309486,25.965466 
z"/>
<path fill="#737C88" opacity="1.000000" stroke="none" 
	d="
M104.003494,28.826736 
	C105.066780,28.437981 106.130058,28.049227 107.193344,27.660473 
	C107.358017,28.055691 107.522697,28.450909 107.687370,28.846127 
	C106.660599,29.203531 105.633835,29.560934 104.280891,29.632954 
	C103.970985,29.173960 103.987244,29.000349 104.003494,28.826736 
z"/>
<path fill="#EEF0F3" opacity="1.000000" stroke="none" 
	d="
M103.679871,28.856750 
	C103.987244,29.000349 103.970985,29.173960 103.917709,29.606476 
	C102.533669,29.935829 101.186638,30.006279 99.433640,30.080078 
	C98.999641,29.902861 98.971611,29.722292 99.360947,29.284618 
	C100.540939,28.928854 101.303566,28.830196 102.066193,28.731537 
	C102.496208,28.783279 102.926231,28.835022 103.679871,28.856750 
z"/>
<path fill="#494B52" opacity="1.000000" stroke="none" 
	d="
M102.085609,28.567392 
	C101.303566,28.830196 100.540939,28.928854 99.389267,29.011990 
	C99.000229,28.996466 99.019440,28.562851 99.056259,28.349613 
	C99.831551,28.082935 100.570038,28.029495 101.676468,28.027164 
	C102.044418,28.078272 102.105026,28.403248 102.085609,28.567392 
z"/>
<path fill="#010101" opacity="1.000000" stroke="none" 
	d="
M51.075699,47.934982 
	C50.947231,48.142929 50.777721,48.372604 50.608212,48.602276 
	C50.625336,48.396397 50.642464,48.190517 50.873543,47.932484 
	C51.087498,47.880329 51.034660,47.956715 51.075699,47.934982 
z"/>
<path fill="#46545B" opacity="1.000000" stroke="none" 
	d="
M21.390945,76.416786 
	C21.069649,76.310059 21.056541,76.071594 21.045692,75.475708 
	C21.214884,75.071022 21.381819,75.023750 21.805483,75.019257 
	C21.941187,75.469704 21.820162,75.877373 21.390945,76.416786 
z"/>
</svg>